<svg width="32" height="32" viewBox="0 0 32 32" fill="none" xmlns="http://www.w3.org/2000/svg">
<path d="M15.9835 2.66162C17.9135 2.66162 19.7171 3.20411 21.2471 4.14759C20.7912 4.63462 20.4387 5.21923 20.2243 5.86662C18.9943 5.10171 17.5405 4.66107 15.9835 4.66107C11.5506 4.66107 7.9733 8.22578 7.97266 12.6589V18.5368L6.17826 22.6612H25.8003L23.9944 18.5381L23.9945 12.676L23.9895 12.3759C23.9845 12.2314 23.9757 12.088 23.9633 11.9456C24.1913 11.9798 24.4247 11.9975 24.6621 11.9975C25.1129 11.9975 25.5488 11.9337 25.9612 11.8148C25.9755 11.9835 25.9856 12.1534 25.9915 12.3244L25.9971 12.6589V18.1201L27.8396 22.3269C27.9319 22.5375 27.9795 22.7648 27.9795 22.9945C27.9795 23.9147 27.2321 24.6607 26.3105 24.6607L19.9889 24.6627C19.9889 26.8712 18.1956 28.6616 15.9835 28.6616C13.8504 28.6616 12.1067 26.9968 11.9849 24.8977L11.9775 24.6597L5.66936 24.6607C5.44059 24.6607 5.21427 24.6137 5.00446 24.5228C4.15904 24.1561 3.77138 23.1747 4.13859 22.3307L5.96995 18.1213V12.6588C5.97074 7.12054 10.4455 2.66162 15.9835 2.66162ZM17.9856 24.6597L13.9808 24.6627C13.9808 25.7669 14.8775 26.6621 15.9835 26.6621C17.0245 26.6621 17.88 25.8692 17.9771 24.8552L17.9856 24.6597ZM21.3773 6.73703C21.5043 6.03418 21.8519 5.40794 22.346 4.93242C22.9463 4.35485 23.7627 3.99963 24.6621 3.99963C26.5056 3.99963 28 5.49161 28 7.33206C28 8.78925 27.0632 10.028 25.758 10.4807C25.4148 10.5998 25.046 10.6645 24.6621 10.6645C24.3309 10.6645 24.0111 10.6163 23.7091 10.5267C22.33 10.1172 21.3243 8.84186 21.3243 7.33206C21.3243 7.12897 21.3425 6.93011 21.3773 6.73703Z" fill="#777777"/>
</svg>
