<svg width="24" height="24" viewBox="0 0 24 24" fill="none" xmlns="http://www.w3.org/2000/svg">
<path d="M11.75 3C12.1297 3 12.4436 3.28201 12.4933 3.64808L12.5002 3.74985L12.5014 11H19.7545C20.1687 11 20.5045 11.3358 20.5045 11.75C20.5045 12.1297 20.2223 12.4435 19.8563 12.4932L19.7545 12.5H12.5014L12.5034 19.7491C12.5035 20.1633 12.1678 20.4993 11.7536 20.4993C11.3739 20.4993 11.06 20.2173 11.0103 19.8512L11.0034 19.7494L11.0014 12.5H3.75244C3.33822 12.5 3.00244 12.1642 3.00244 11.75C3.00244 11.3703 3.28459 11.0565 3.65067 11.0068L3.75244 11H11.0014L11.0002 3.75015C11.0001 3.33594 11.3358 3 11.75 3Z" fill="white"/>
</svg>
